<!DOCTYPE svg PUBLIC "-//W3C//DTD SVG 1.1//EN" "http://www.w3.org/Graphics/SVG/1.1/DTD/svg11.dtd">

<!-- Uploaded to: SVG Repo, www.svgrepo.com, Transformed by: SVG Repo Mixer Tools -->
<svg fill="#29d1c6" version="1.1" id="Capa_1" xmlns="http://www.w3.org/2000/svg" xmlns:xlink="http://www.w3.org/1999/xlink" width="128px" height="128px" viewBox="0 0 54.50 54.50" xml:space="preserve" stroke="#29d1c6">

<g id="SVGRepo_bgCarrier" stroke-width="0"/>

<g id="SVGRepo_tracerCarrier" stroke-linecap="round" stroke-linejoin="round"/>

<g id="SVGRepo_iconCarrier"> <g> <path d="M54.5,27.25c0-1.311-1.168-2.471-2.965-3.201C50.104,13.08,41.42,4.397,30.45,2.965C29.721,1.168,28.561,0,27.25,0 c-1.311,0-2.471,1.168-3.201,2.965C13.08,4.397,4.397,13.08,2.965,24.049C1.168,24.778,0,25.939,0,27.25 c0,1.311,1.168,2.471,2.965,3.2C4.397,41.42,13.08,50.104,24.049,51.535c0.729,1.797,1.89,2.965,3.201,2.965 c1.311,0,2.471-1.168,3.2-2.965C41.42,50.104,50.104,41.42,51.535,30.45C53.332,29.721,54.5,28.561,54.5,27.25z M30.954,44.348 c-0.597-2.695-2.028-4.598-3.704-4.598s-3.109,1.9-3.704,4.598c-6.68-1.447-11.947-6.713-13.393-13.394 c2.695-0.597,4.597-2.028,4.597-3.704s-1.902-3.109-4.597-3.704c1.446-6.68,6.713-11.947,13.393-13.393 c0.595,2.695,2.028,4.597,3.704,4.597s3.107-1.902,3.704-4.597c6.681,1.446,11.946,6.713,13.394,13.393 c-2.697,0.595-4.598,2.028-4.598,3.704s1.9,3.107,4.598,3.704C42.9,37.635,37.635,42.9,30.954,44.348z"/> </g> </g>

</svg>